<?xml version="1.0" encoding="UTF-8"?>
<svg id="Layer_2" data-name="Layer 2" xmlns="http://www.w3.org/2000/svg" viewBox="0 0 1869.94 1853.17">
  <defs>
    <style>
      .cls-1 {
        fill: #2bb673;
      }

      .cls-2 {
        fill: none;
        stroke: #00a89e;
        stroke-miterlimit: 10;
      }

      .cls-3 {
        fill: #00a89e;
      }

      .cls-4 {
        fill: #1d75bc;
      }

      .cls-5 {
        fill: #00aeef;
      }
    </style>
  </defs>
  <g id="Layer_1-2" data-name="Layer 1">
    <path class="cls-1" d="M716.79,1160.7h-10.72c-36.09,0-102.82-25.29-107.05-62.43v-414.57c4.24-35.04,33.76-64.57,69.86-64.57h10.72c36.09,0,65.62,29.53,65.62,65.62v414.57c0,36.09,7.67,61.39-28.42,61.39Z"/>
    <rect class="cls-4" x="792.25" y="622.68" width="147.87" height="416.88" rx="63.46" ry="63.46"/>
    <path class="cls-4" d="M1106.23,1156.19h-21.35c-35.57,0-101.87-24.87-101.87-60.44v-412.73c0-35.57,29.1-64.67,64.67-64.67h21.35c35.57,0,64.67,29.1,60.44,63.62v412.73c4.24,36.62,12.33,61.48-23.24,61.48Z"/>
    <path class="cls-3" d="M1250.92,116.11c-81.04,38.47-115.43,110.96-118.39,186.35-.31,8.1-8.21,13.46-15.64,11.1-2.73-1.28-5.48-2.54-8.25-3.77-.07-.04-.15-.07-.21-.1-31.67-14.19-65.02-25.78-99.87-34.47-318.59-79.43-641.24,114.44-720.67,433.01-48.92,196.21,5.83,393.97,129.54,535.5,5.62,4.62,12.49,5.77,24.96-2.83,3.7-2.55,9.63-6.45,13.62-9.18,18.14-12.41,44.59-39.04,39.69,22.33-1.56,19.39-3.12,39.72-4.7,60.52-5.18,68.2-10.41,141.43-15.02,203.02-1.26,16.88-17.97,28.13-34.09,22.97-82.61-26.46-196.9-50.89-282.75-75.52-13.24-3.79-16.05-21.3-4.69-29.07l40.13-27.47c8.09-5.52,9.75-16.8,3.55-24.39C-372.81,684.81,386.64-310.1,1250.88,93.1c9.78,4.56,9.8,18.39.05,23.02Z"/>
    <path class="cls-5" d="M1537.49,1592.42l-106.71,84.35c-10.76,8.51-26.06,8.05-36.29-1.06l-105.46-93.79c-8.88-7.9-21.77-9.39-32.23-3.72-45.09,24.46-92.32,44.83-141.07,60.82-11.31,3.7-19.06,14.1-19.42,25.99l-4.19,141.06c-.39,13.71-10.58,25.13-24.13,27.11l-134.59,19.69c-13.56,1.98-26.59-6.05-30.91-19.06l-44.16-133.12c-3.76-11.33-14.25-19.08-26.19-19.34-51.01-1.11-102.38-6.86-153.52-17.48-11.61-2.42-23.51,2.71-29.75,12.81l-73.41,118.85c-7.2,11.66-21.74,16.47-34.46,11.41l-126.39-50.25c-12.74-5.05-20.01-18.52-17.24-31.95l21.27-103.16c2.78-13.46,12.09-24.62,24.79-29.86,12.29-5.06,24.25-11.12,35.76-18.16,14.98-9.16,24.77-24.86,26.53-42.33l18.83-186.45c.71-7,8.55-10.8,14.46-7,34.22,21.96,69.97,39.99,106.71,54.16.82.25,1.64.53,2.46.84,12.98,4.94,26.09,9.4,39.29,13.37,231.73,69.93,492.5-6.93,646.65-211.5,148.34-196.85,155.79-455.99,39.36-656.56-6.66-11.49-13.74-22.79-21.23-33.87-2.5-3.72-6.48-6.17-10.93-6.75-29.38-3.83-58.28-14.8-84.01-33.32-30.2-21.72-51.92-50.85-64.46-83.13-5.47-14.07-9.2-28.74-11.12-43.65t0-.03c-5.78-44.93,4.8-92.08,33.35-131.76,29.88-41.55,73.79-67.05,120.61-74.68h0c46.77-7.62,96.45,2.59,137.97,32.45,6.23,4.47,12.08,9.27,17.59,14.33,4.9,4.52,12.07,5.51,17.93,2.35l25.58-13.77,38.88-20.93c12.07-6.49,27.04-3.38,35.55,7.36l84.34,106.72c8.51,10.74,8.06,26.05-1.05,36.28l-88.5,99.51c-7.88,8.84-9.4,21.67-3.79,32.1,25.24,46.97,46.03,96.21,62.1,147.05,3.63,11.44,14.09,19.34,26.09,19.7l134.47,4c13.68.41,25.12,10.59,27.1,24.15l19.7,134.58c1.98,13.56-6.05,26.59-19.06,30.89l-129.72,43.04c-11.25,3.72-18.98,14.07-19.34,25.92-1.58,51.72-7.94,103.75-19.33,155.49-2.59,11.72,2.54,23.79,12.73,30.09l117.38,72.49c11.65,7.21,16.47,21.74,11.4,34.47l-50.22,126.39c-5.07,12.73-18.54,20-31.96,17.24l-136.82-28.22c-11.62-2.39-23.52,2.73-29.74,12.85-13.65,22.18-28.21,43.55-43.63,64.11-15.52,20.69-31.9,40.55-49.05,59.52-8.01,8.86-9.58,21.8-3.92,32.32l66.49,123.48c6.5,12.06,3.4,27.06-7.35,35.56Z"/>
    <path class="cls-2" d="M813.62,1521.36s-.06.08-.08.13c-14.61-.39-29.28-1.32-43.94-2.81.85.03,1.72.08,2.59.16,13.83,1.33,27.65,2.17,41.43,2.51Z"/>
  </g>
</svg>